# xmcd
#
# Track frame offsets: 
#        150
#        24899
#        48512
#        71102
#        95630
#        112851
#        133314
#        155013
#        178689
#        206299
#
# Disc length: 3005 seconds
#
# Revision: 0
# Processed by: cddbd v1.5.2PL0 Copyright (c) Steve Scherf et al.
# Submitted via: ExactAudioCopy v1.0b3
#
DISCID=880bbb0a
DTITLE=Truong Vu - Dap Vo Cay Dan
DYEAR=1998
DGENRE=
TTITLE0=Dap vo cay dan
TTITLE1=Bong co may
TTITLE2=Chuyen tau hoang hon
TTITLE3=Cho vua long em
TTITLE4=Moi em ve tham que anh
TTITLE5=Thi tran ve dem
TTITLE6=Mua rung
TTITLE7=Xin yeu toi bang ca tinh nguoi
TTITLE8=Thu ve em gai thanh do
TTITLE9=Canh buom chuyen ben
EXTD=
EXTT0=
EXTT1=
EXTT2=
EXTT3=
EXTT4=
EXTT5=
EXTT6=
EXTT7=
EXTT8=
EXTT9=
PLAYORDER=
